<?xml version="1.0" encoding="UTF-8"?>
<svg version="1.1" viewBox="0 0 2000 2000" width="500" height="500" xmlns="http://www.w3.org/2000/svg">
<path transform="translate(1362,952)" d="m0 0h100l19 2 16 5 15 8 13 12 7 11 5 11 3 11 1 7v20l-3 15-5 13-9 13-9 9-12 7-3 1 2 6 9 15 16 27 15 25 2 5-1 1h-56l-6-9-14-24-20-35v-2h-34v69l-2 1h-48l-1-1zm50 43v68h48l9-2 9-5 7-7 4-10 1-13-3-12-5-8-8-6-8-3-12-2z"/>
<path transform="translate(480,1124)" d="m0 0h493l1 1v52l-1 1h-492l-1-1z"/>
<path transform="translate(1040,812)" d="m0 0h493l1 1v51l-2 1h-492z"/>
<path transform="translate(828,800)" d="m0 0h49l3 5 12 30 27 68 25 63 22 55v2l-3 1h-50l-3-5-13-33-89-1-3 9-8 21-3 8-3 1h-51l-1-3 8-19 37-93 15-38 28-70zm24 65-6 14-15 40-10 26h63l-3-9-15-40-10-26-2-5z"/>
<path transform="translate(1066,952)" d="m0 0h193v47h-70l-1 176-1 1h-48l-1-1-1-10v-165l-70-1-1-3z"/>
<path transform="translate(512,800)" d="m0 0h50l1 1v159l-1 16h97l2 2v44l-2 2h-147z"/>
</svg>
